{
	"asset":{
		"version":"2.0",
		"generator":"Houdini GLTF 2.0 Exporter"
	},
	"accessors":[
		{
			"bufferView":0,
			"componentType":5123,
			"count":2190,
			"type":"SCALAR",
			"min":[0
			],
			"max":[2189
			]
		},
		{
			"bufferView":1,
			"componentType":5126,
			"count":2190,
			"type":"VEC3",
			"min":[-0.135879129,-0.167992398,0.0281161666
			],
			"max":[0.135879129,0.187667534,0.457688481
			]
		},
		{
			"bufferView":2,
			"componentType":5126,
			"count":2190,
			"type":"VEC3",
			"min":[-0.135879129,-0.167992398,0.0281161666
			],
			"max":[0.135879129,0.187667534,0.457688481
			]
		},
		{
			"bufferView":3,
			"componentType":5126,
			"count":2190,
			"type":"VEC3",
			"min":[-0.999576569,-0.994015694,-1
			],
			"max":[0.999576569,0.987750709,0.992094278
			]
		}
	],
	"buffers":[
		{
			"uri":"face_data.bin",
			"byteLength":83220,
			"name":"main_buffer"
		}
	],
	"bufferViews":[
		{
			"buffer":0,
			"byteLength":4380,
			"target":34963
		},
		{
			"buffer":0,
			"byteOffset":4380,
			"byteLength":26280,
			"target":34962
		},
		{
			"buffer":0,
			"byteOffset":30660,
			"byteLength":26280,
			"target":34962
		},
		{
			"buffer":0,
			"byteOffset":56940,
			"byteLength":26280,
			"target":34962
		}
	],
	"nodes":[
		{
			"name":"low",
			"mesh":0
		}
	],
	"meshes":[
		{
			"primitives":[
				{
					"attributes":{
						"NORMAL":3,
						"MOUTH":2,
						"POSITION":1
					},
					"indices":0
				}
			]
		}
	],
	"scenes":[
		{
			"nodes":[0
			]
		}
	],
	"scene":0
}
